<svg xmlns="http://www.w3.org/2000/svg" xmlns:xlink="http://www.w3.org/1999/xlink" width="500" zoomAndPan="magnify" viewBox="0 0 375 374.999991" height="500" preserveAspectRatio="xMidYMid meet" version="1.0"><defs><g/><clipPath id="69baac4e0c"><path d="M 45.269531 193 L 102 193 L 102 231.847656 L 45.269531 231.847656 Z M 45.269531 193 " clip-rule="nonzero"/></clipPath><clipPath id="5385faad27"><path d="M 47 168.847656 L 83 168.847656 L 83 228 L 47 228 Z M 47 168.847656 " clip-rule="nonzero"/></clipPath><clipPath id="41a058f4bc"><path d="M 201.175781 240.972656 L 297.175781 240.972656 L 297.175781 272 L 201.175781 272 Z M 201.175781 240.972656 " clip-rule="nonzero"/></clipPath><clipPath id="ed6039e217"><path d="M 129.871094 241.695312 L 270 241.695312 L 270 291.945312 L 129.871094 291.945312 Z M 129.871094 241.695312 " clip-rule="nonzero"/></clipPath><clipPath id="6aad06526b"><path d="M 130.625 115.410156 L 186.125 115.410156 L 186.125 206.910156 L 130.625 206.910156 Z M 130.625 115.410156 " clip-rule="nonzero"/></clipPath><clipPath id="da1f8b908a"><path d="M 185.714844 156.441406 L 296.824219 156.441406 L 296.824219 205.941406 L 185.714844 205.941406 Z M 185.714844 156.441406 " clip-rule="nonzero"/></clipPath><clipPath id="6493bc4e9b"><path d="M 111 75.621094 L 217 75.621094 L 217 106 L 111 106 Z M 111 75.621094 " clip-rule="nonzero"/></clipPath><clipPath id="4413e8b130"><path d="M 126 96 L 203 96 L 203 119.871094 L 126 119.871094 Z M 126 96 " clip-rule="nonzero"/></clipPath><clipPath id="1956538415"><path d="M 140 117 L 188 117 L 188 119.871094 L 140 119.871094 Z M 140 117 " clip-rule="nonzero"/></clipPath></defs><g clip-path="url(#69baac4e0c)"><path fill="#3d194f" d="M 90.03125 205.476562 L 101.941406 232.160156 L 92.675781 232.160156 L 84.113281 212.972656 C 77.050781 220.476562 67.785156 225.976562 55.847656 229.570312 L 54.695312 232.160156 L 45.4375 232.160156 L 45.460938 232.109375 L 45.269531 232.148438 C 67.261719 223.121094 81.046875 209.082031 84.839844 193.828125 Z M 90.03125 205.476562 " fill-opacity="1" fill-rule="nonzero"/></g><g clip-path="url(#5385faad27)"><path fill="#1f2020" d="M 47.324219 227.933594 L 69.816406 177.5 L 73.679688 168.851562 L 77.554688 177.5 L 82.8125 189.289062 L 81.863281 193.09375 C 81.167969 195.910156 80.128906 198.59375 78.828125 201.117188 L 73.679688 189.609375 L 59.570312 221.238281 C 55.613281 223.835938 51.453125 226.074219 47.324219 227.933594 Z M 47.324219 227.933594 " fill-opacity="1" fill-rule="nonzero"/></g><g clip-path="url(#41a058f4bc)"><path fill="#3d194f" d="M 297.175781 26.128906 L 290.992188 26.128906 L 290.992188 259.527344 L 218.972656 259.527344 C 217.695312 255.929688 214.242188 253.320312 210.230469 253.320312 C 205.144531 253.320312 200.957031 257.511719 200.957031 262.59375 C 200.957031 267.679688 205.144531 271.871094 210.230469 271.871094 C 214.226562 271.871094 217.664062 269.285156 218.957031 265.710938 L 297.175781 265.710938 Z M 213.320312 262.59375 C 213.320312 264.339844 211.972656 265.6875 210.230469 265.6875 C 208.484375 265.6875 207.136719 264.339844 207.136719 262.59375 C 207.136719 260.851562 208.484375 259.503906 210.230469 259.503906 C 211.972656 259.503906 213.320312 260.851562 213.320312 262.59375 Z M 213.320312 262.59375 " fill-opacity="1" fill-rule="nonzero"/></g><g clip-path="url(#ed6039e217)"><path fill="#3d194f" d="M 23.859375 20.996094 L 18.285156 24.214844 L 19.894531 27 L 169.023438 285.296875 L 251.1875 285.296875 C 252.5 289.078125 256.113281 291.828125 260.316406 291.828125 C 265.609375 291.828125 269.972656 287.46875 269.972656 282.175781 C 269.972656 276.878906 265.609375 272.519531 260.316406 272.519531 C 256.183594 272.519531 252.621094 275.175781 251.257812 278.859375 L 172.738281 278.859375 L 25.46875 23.78125 Z M 260.316406 278.953125 C 262.132812 278.953125 263.535156 280.359375 263.535156 282.175781 C 263.535156 283.988281 262.132812 285.390625 260.316406 285.390625 C 258.5 285.390625 257.097656 283.988281 257.097656 282.175781 C 257.097656 280.359375 258.5 278.953125 260.316406 278.953125 Z M 260.316406 278.953125 " fill-opacity="1" fill-rule="nonzero"/></g><g fill="#1f2020" fill-opacity="1"><g transform="translate(106.286217, 232.520813)"><g><path d="M 13.6875 -5.75 L 13.6875 -16.515625 L 10.421875 -16.515625 L 10.421875 -5.765625 C 10.421875 -2.3125 5.0625 -2.3125 5.0625 -5.765625 L 5.0625 -16.515625 L 1.75 -16.515625 L 1.75 -5.75 C 1.75 2.09375 13.6875 2.09375 13.6875 -5.75 Z M 13.6875 -5.75 "/></g></g></g><g fill="#1f2020" fill-opacity="1"><g transform="translate(124.155762, 232.520813)"><g><path d="M 7.875 0 L 7.875 -13.203125 L 11.984375 -13.203125 L 11.984375 -16.484375 L 0.46875 -16.484375 L 0.46875 -13.203125 L 4.578125 -13.203125 L 4.578125 0 Z M 7.875 0 "/></g></g></g><g fill="#1f2020" fill-opacity="1"><g transform="translate(139.162555, 232.520813)"><g><path d="M 9.796875 0.234375 C 21.15625 0.234375 21.15625 -16.796875 9.796875 -16.796875 C -1.578125 -16.796875 -1.578125 0.234375 9.796875 0.234375 Z M 9.796875 -3.1875 C 3.1875 -3.1875 3.1875 -13.390625 9.796875 -13.390625 C 16.390625 -13.390625 16.390625 -3.1875 9.796875 -3.1875 Z M 9.796875 -3.1875 "/></g></g></g><g fill="#1f2020" fill-opacity="1"><g transform="translate(161.095359, 232.520813)"><g><path d="M 9.421875 -9.515625 L 2.90625 -16.765625 L 1.84375 -16.765625 L 1.84375 0 L 5.203125 0 L 5.203125 -9.21875 L 9.421875 -4.78125 L 13.640625 -9.21875 L 13.625 0 L 16.96875 0 L 16.96875 -16.765625 L 15.9375 -16.765625 Z M 9.421875 -9.515625 "/></g></g></g><g fill="#1f2020" fill-opacity="1"><g transform="translate(182.312477, 232.520813)"><g><path d="M 0.375 0 L 4.109375 0 L 4.75 -1.78125 L 10.234375 -1.78125 L 10.90625 0 L 14.625 0 L 7.671875 -17.109375 L 7.328125 -17.109375 Z M 5.953125 -4.875 L 7.5 -9.171875 L 9 -4.875 Z M 5.953125 -4.875 "/></g></g></g><g fill="#1f2020" fill-opacity="1"><g transform="translate(199.766459, 232.520813)"><g><path d="M 7.875 0 L 7.875 -13.203125 L 11.984375 -13.203125 L 11.984375 -16.484375 L 0.46875 -16.484375 L 0.46875 -13.203125 L 4.578125 -13.203125 L 4.578125 0 Z M 7.875 0 "/></g></g></g><g fill="#1f2020" fill-opacity="1"><g transform="translate(214.773254, 232.520813)"><g><path d="M 5.15625 0 L 5.15625 -16.515625 L 1.84375 -16.515625 L 1.84375 0 Z M 5.15625 0 "/></g></g></g><g fill="#1f2020" fill-opacity="1"><g transform="translate(224.169976, 232.520813)"><g><path d="M 11.5625 0 L 11.5625 -3.328125 L 5.421875 -3.328125 L 11.390625 -16.515625 L 1.390625 -16.515625 L 1.390625 -13.296875 L 6.46875 -13.296875 C 4.484375 -8.890625 2.5 -4.4375 0.515625 0 Z M 11.5625 0 "/></g></g></g><g fill="#1f2020" fill-opacity="1"><g transform="translate(238.899731, 232.520813)"><g><path d="M 0.375 0 L 4.109375 0 L 4.75 -1.78125 L 10.234375 -1.78125 L 10.90625 0 L 14.625 0 L 7.671875 -17.109375 L 7.328125 -17.109375 Z M 5.953125 -4.875 L 7.5 -9.171875 L 9 -4.875 Z M 5.953125 -4.875 "/></g></g></g><g fill="#1f2020" fill-opacity="1"><g transform="translate(256.353713, 232.520813)"><g/></g></g><g fill="#1f2020" fill-opacity="1"><g transform="translate(265.288701, 232.520813)"><g><path d="M 10.09375 -13.203125 L 10.09375 -16.515625 L 1.84375 -16.515625 L 1.84375 0 L 5.15625 0 L 5.15625 -6.609375 L 9.359375 -6.609375 L 9.359375 -9.90625 L 5.15625 -9.90625 L 5.15625 -13.203125 Z M 10.09375 -13.203125 "/></g></g></g><g fill="#1f2020" fill-opacity="1"><g transform="translate(278.633253, 232.520813)"><g><path d="M 11.125 -20.921875 L 6.828125 -20.921875 L 5.609375 -17.671875 L 8.796875 -17.671875 Z M 7.96875 -16.71875 L 7.015625 -16.71875 L 0.375 0 L 4.109375 0 L 4.75 -1.78125 L 10.234375 -1.78125 L 10.90625 0 L 14.625 0 Z M 9 -4.875 L 5.953125 -4.875 L 7.5 -9.28125 Z M 9 -4.875 "/></g></g></g><g fill="#1f2020" fill-opacity="1"><g transform="translate(296.087235, 232.520813)"><g><path d="M 12.359375 -12.671875 L 12.75 -16.078125 C 11.75 -16.515625 10.640625 -16.71875 9.484375 -16.71875 C -1.6875 -16.71875 -1.703125 0.046875 9.484375 0.046875 C 10.640625 0.046875 12.09375 -0.234375 13.125 -0.640625 L 12.671875 -4.0625 C 12.0625 -3.734375 10.921875 -3.328125 9.484375 -3.328125 C 2.953125 -3.328125 2.953125 -13.390625 9.484375 -13.390625 C 10.921875 -13.390625 11.734375 -13 12.359375 -12.671875 Z M 12.359375 -12.671875 "/></g></g></g><g fill="#1f2020" fill-opacity="1"><g transform="translate(312.363801, 232.520813)"><g><path d="M 5.15625 0 L 5.15625 -16.515625 L 1.84375 -16.515625 L 1.84375 0 Z M 5.15625 0 "/></g></g></g><g fill="#1f2020" fill-opacity="1"><g transform="translate(321.760514, 232.520813)"><g><path d="M 1.84375 -16.515625 L 1.84375 0 L 10.390625 0 L 10.390625 -3.296875 L 5.15625 -3.296875 L 5.15625 -16.515625 Z M 1.84375 -16.515625 "/></g></g></g><g clip-path="url(#6aad06526b)"><path fill="#3d194f" d="M 271.894531 370.480469 C 271.894531 369.417969 272.425781 368.355469 272.957031 367.292969 C 287.304688 348.164062 287.835938 343.914062 287.835938 306.71875 C 287.835938 285.460938 280.929688 259.957031 280.929688 259.957031 C 280.398438 258.890625 280.929688 257.828125 280.929688 256.765625 C 283.585938 249.328125 279.867188 241.890625 272.957031 239.761719 C 269.769531 238.699219 266.046875 238.699219 262.859375 240.292969 C 259.671875 241.890625 257.015625 244.546875 255.953125 247.734375 C 254.890625 250.390625 252.234375 251.984375 249.046875 250.921875 C 246.386719 249.859375 244.792969 247.203125 245.855469 244.015625 L 249.578125 233.386719 C 251.703125 226.476562 248.511719 219.570312 241.605469 216.914062 L 240.542969 216.382812 C 233.636719 214.257812 226.726562 217.445312 224.070312 224.351562 L 221.945312 230.195312 C 220.882812 232.855469 218.222656 234.449219 215.566406 233.917969 C 212.910156 233.386719 211.316406 230.726562 211.316406 228.070312 L 212.910156 215.851562 L 212.910156 213.726562 C 212.910156 206.285156 206.535156 200.441406 199.09375 200.441406 C 195.375 200.441406 192.1875 202.035156 189.53125 204.160156 C 187.40625 206.285156 185.8125 209.472656 185.8125 212.660156 L 186.875 258.890625 C 186.875 262.082031 184.75 264.207031 181.558594 264.207031 C 178.371094 264.207031 176.246094 262.082031 176.246094 258.890625 L 176.246094 213.726562 C 176.246094 213.195312 176.246094 213.195312 176.246094 212.660156 L 176.246094 139.332031 C 176.246094 131.890625 170.398438 126.046875 162.960938 126.046875 C 155.519531 126.046875 149.675781 131.890625 149.675781 139.332031 L 149.675781 280.148438 C 150.207031 280.148438 150.738281 279.617188 151.269531 279.617188 C 152.863281 279.617188 154.457031 280.148438 155.519531 281.742188 C 157.648438 283.867188 157.117188 287.589844 154.988281 289.183594 L 148.082031 295.027344 L 147.550781 295.558594 C 134.796875 304.058594 133.734375 311.5 133.734375 327.972656 L 133.734375 328.503906 C 134.265625 350.289062 152.863281 366.230469 152.863281 366.230469 C 154.457031 367.292969 154.988281 368.886719 154.988281 370.480469 L 154.988281 391.738281 C 154.988281 397.582031 159.773438 402.367188 165.617188 402.367188 L 261.796875 402.367188 C 267.109375 402.367188 271.894531 397.582031 271.894531 391.738281 Z M 298.464844 306.71875 C 298.464844 343.914062 297.933594 351.351562 282.523438 372.078125 L 282.523438 391.738281 C 282.523438 403.429688 273.488281 412.992188 261.796875 412.992188 L 165.617188 412.992188 C 153.925781 412.992188 144.363281 403.429688 144.363281 391.738281 L 144.363281 372.609375 C 138.519531 367.292969 123.105469 350.289062 123.105469 327.972656 L 123.105469 327.441406 C 123.105469 310.96875 124.699219 299.277344 139.050781 288.121094 L 139.050781 139.332031 C 139.050781 126.046875 149.675781 115.417969 162.960938 115.417969 C 176.246094 115.417969 186.875 126.046875 186.875 139.332031 L 186.875 194.0625 C 190.59375 191.40625 195.375 189.8125 200.15625 189.8125 C 211.847656 189.8125 221.945312 198.316406 224.070312 209.472656 C 229.914062 205.753906 237.355469 204.691406 244.261719 206.816406 L 245.324219 207.347656 C 254.890625 210.535156 261.265625 219.570312 261.265625 229.132812 C 266.046875 227.539062 271.894531 227.539062 276.675781 229.132812 C 288.898438 233.386719 295.277344 246.140625 292.085938 258.359375 C 293.148438 264.738281 298.464844 287.054688 298.464844 306.71875 " fill-opacity="1" fill-rule="nonzero"/></g><g clip-path="url(#da1f8b908a)"><path fill="#3d194f" d="M 159.113281 93.675781 C 163.289062 93.679688 167.226562 95.320312 170.210938 98.300781 C 173.1875 101.277344 174.828125 105.214844 174.828125 109.390625 L 174.828125 170.558594 C 174.828125 170.667969 174.855469 170.769531 174.863281 170.875 C 171.921875 175.183594 170.332031 180.25 170.332031 185.558594 L 170.332031 224.769531 C 170.332031 239.203125 182.078125 250.953125 196.5625 250.957031 L 197.042969 250.953125 C 203.792969 250.953125 209.9375 248.363281 214.585938 244.152344 C 219.347656 248.484375 225.574219 250.953125 232.199219 250.957031 L 232.683594 250.953125 C 240.082031 250.953125 246.757812 247.855469 251.523438 242.90625 C 256.375 247.957031 263.140625 250.953125 270.4375 250.957031 L 270.917969 250.953125 C 276.835938 250.953125 282.285156 248.953125 286.675781 245.625 L 286.675781 259.46875 C 286.675781 270.699219 284.671875 288.746094 282.203125 299.703125 L 272.59375 342.335938 L 159.214844 342.335938 L 147.027344 312.433594 C 142.554688 301.457031 133.53125 284.535156 126.914062 274.710938 L 97.984375 231.746094 C 96.617188 229.316406 95.960938 226.554688 96.003906 223.691406 C 96.011719 223.59375 96.007812 223.492188 96.003906 223.398438 C 95.839844 218.984375 97.480469 214.867188 100.550781 211.800781 L 126.800781 185.558594 C 129.691406 182.664062 133.53125 181.054688 137.644531 180.992188 C 137.734375 180.988281 137.820312 180.980469 137.90625 180.980469 C 142.121094 180.980469 146.066406 182.601562 149.027344 185.566406 L 149.382812 185.921875 C 155.511719 192.050781 155.511719 202.023438 149.386719 208.148438 L 134.394531 223.144531 C 132.714844 224.820312 132.371094 227.414062 133.558594 229.464844 L 136.019531 233.730469 C 137.46875 236.234375 140.667969 237.09375 143.175781 235.648438 C 145.675781 234.199219 146.539062 231 145.089844 228.492188 L 144.640625 227.710938 L 156.792969 215.554688 C 167.003906 205.347656 167.003906 188.730469 156.78125 178.507812 L 156.425781 178.148438 C 152.683594 174.410156 147.988281 171.949219 142.878906 170.976562 L 142.882812 109.390625 C 142.882812 105.21875 144.523438 101.273438 147.503906 98.296875 C 150.480469 95.316406 154.417969 93.675781 158.597656 93.675781 Z M 197.039062 169.847656 C 205.703125 169.847656 212.753906 176.894531 212.753906 185.558594 L 212.753906 224.765625 C 212.753906 233.429688 205.707031 240.476562 197 240.476562 L 196.523438 240.484375 C 187.859375 240.480469 180.808594 233.429688 180.808594 224.769531 L 180.808594 185.558594 C 180.808594 181.382812 182.449219 177.445312 185.425781 174.464844 C 188.40625 171.484375 192.34375 169.847656 196.519531 169.847656 Z M 232.160156 182.414062 L 232.683594 182.414062 C 241.34375 182.414062 248.390625 189.464844 248.390625 198.125 L 248.390625 224.765625 C 248.390625 233.429688 241.34375 240.476562 232.640625 240.476562 L 232.160156 240.484375 C 227.84375 240.480469 223.796875 238.683594 220.851562 235.605469 C 222.363281 232.296875 223.230469 228.632812 223.230469 224.765625 L 223.230469 185.558594 C 223.230469 185.457031 223.214844 185.355469 223.214844 185.253906 C 225.828125 183.433594 228.941406 182.414062 232.160156 182.414062 Z M 270.394531 192.890625 L 270.914062 192.890625 C 275.09375 192.890625 279.03125 194.53125 282.011719 197.511719 C 284.988281 200.488281 286.628906 204.421875 286.628906 208.601562 L 286.632812 224.761719 C 286.628906 233.429688 279.578125 240.476562 270.875 240.476562 L 270.394531 240.484375 C 265.085938 240.480469 260.25 237.785156 257.355469 233.453125 C 258.320312 230.730469 258.867188 227.8125 258.867188 224.765625 L 258.867188 198.125 C 258.867188 198.078125 258.859375 198.03125 258.859375 197.980469 C 261.828125 194.773438 266.027344 192.890625 270.394531 192.890625 Z M 140.09375 90.890625 C 135.136719 95.847656 132.410156 102.414062 132.410156 109.386719 L 132.40625 171.089844 C 127.503906 172.128906 123 174.535156 119.390625 178.148438 L 93.148438 204.390625 C 88.117188 209.417969 85.324219 216.441406 85.527344 223.574219 C 85.46875 228.363281 86.632812 233.035156 88.992188 237.128906 C 89.050781 237.230469 89.117188 237.335938 89.1875 237.4375 L 118.226562 280.558594 C 124.507812 289.890625 133.078125 305.960938 137.328125 316.386719 L 150.84375 349.546875 C 151.644531 351.523438 153.558594 352.8125 155.691406 352.8125 L 276.785156 352.8125 C 279.226562 352.8125 281.351562 351.113281 281.890625 348.726562 L 292.417969 302.007812 C 295.03125 290.425781 297.15625 271.34375 297.15625 259.46875 L 297.15625 224.765625 C 297.15625 224.597656 297.121094 224.4375 297.105469 224.273438 L 297.101562 208.605469 C 297.101562 208.601562 297.101562 208.601562 297.101562 208.597656 C 297.101562 201.628906 294.375 195.058594 289.417969 190.105469 C 284.460938 185.148438 277.886719 182.414062 270.914062 182.414062 L 270.394531 182.414062 C 265.316406 182.414062 260.382812 183.933594 256.183594 186.652344 C 251.917969 177.953125 243 171.941406 232.683594 171.941406 L 232.160156 171.941406 C 228.179688 171.941406 224.304688 172.882812 220.789062 174.589844 C 216.628906 165.621094 207.5625 159.371094 197.039062 159.371094 L 196.519531 159.371094 C 192.574219 159.371094 188.769531 160.273438 185.300781 161.929688 L 185.300781 109.390625 C 185.300781 102.421875 182.574219 95.847656 177.617188 90.890625 C 172.660156 85.933594 166.089844 83.203125 159.113281 83.203125 L 158.597656 83.203125 C 151.625 83.203125 145.054688 85.929688 140.09375 90.890625 " fill-opacity="1" fill-rule="nonzero"/></g><g clip-path="url(#6493bc4e9b)"><path fill="#3d194f" d="M 164.09375 75.621094 C 159.316406 75.609375 154.589844 76.0625 149.90625 76.988281 C 145.222656 77.914062 140.675781 79.289062 136.265625 81.117188 C 131.855469 82.941406 127.667969 85.183594 123.699219 87.84375 C 119.734375 90.5 116.070312 93.519531 112.703125 96.90625 C 112.460938 97.148438 112.246094 97.410156 112.058594 97.695312 C 111.867188 97.976562 111.707031 98.277344 111.578125 98.589844 C 111.445312 98.90625 111.347656 99.230469 111.28125 99.566406 C 111.214844 99.902344 111.183594 100.238281 111.183594 100.578125 C 111.183594 100.921875 111.214844 101.257812 111.28125 101.59375 C 111.347656 101.925781 111.445312 102.253906 111.578125 102.566406 C 111.707031 102.882812 111.867188 103.183594 112.058594 103.464844 C 112.246094 103.75 112.460938 104.011719 112.703125 104.253906 C 112.945312 104.496094 113.207031 104.710938 113.492188 104.898438 C 113.773438 105.089844 114.074219 105.25 114.390625 105.378906 C 114.703125 105.507812 115.027344 105.609375 115.363281 105.675781 C 115.699219 105.742188 116.035156 105.773438 116.375 105.773438 C 116.71875 105.773438 117.054688 105.742188 117.390625 105.675781 C 117.726562 105.609375 118.050781 105.507812 118.363281 105.378906 C 118.679688 105.25 118.980469 105.089844 119.261719 104.898438 C 119.546875 104.710938 119.808594 104.496094 120.050781 104.253906 C 121.492188 102.8125 123.003906 101.445312 124.582031 100.152344 C 126.15625 98.859375 127.792969 97.644531 129.492188 96.511719 C 131.1875 95.382812 132.933594 94.335938 134.734375 93.375 C 136.535156 92.414062 138.375 91.542969 140.257812 90.761719 C 142.144531 89.984375 144.0625 89.296875 146.015625 88.707031 C 147.964844 88.113281 149.941406 87.621094 151.941406 87.222656 C 153.941406 86.824219 155.957031 86.527344 157.988281 86.324219 C 160.019531 86.125 162.050781 86.027344 164.09375 86.027344 C 166.132812 86.027344 168.164062 86.125 170.195312 86.324219 C 172.226562 86.527344 174.242188 86.824219 176.242188 87.222656 C 178.242188 87.621094 180.21875 88.113281 182.167969 88.707031 C 184.121094 89.296875 186.039062 89.984375 187.925781 90.761719 C 189.808594 91.542969 191.648438 92.414062 193.449219 93.375 C 195.25 94.335938 196.996094 95.382812 198.691406 96.511719 C 200.390625 97.644531 202.027344 98.859375 203.601562 100.152344 C 205.179688 101.445312 206.691406 102.8125 208.132812 104.253906 C 208.375 104.496094 208.636719 104.710938 208.921875 104.898438 C 209.203125 105.089844 209.503906 105.25 209.820312 105.378906 C 210.132812 105.507812 210.457031 105.609375 210.792969 105.675781 C 211.128906 105.742188 211.464844 105.773438 211.808594 105.773438 C 212.148438 105.773438 212.484375 105.742188 212.820312 105.675781 C 213.15625 105.609375 213.480469 105.507812 213.792969 105.378906 C 214.109375 105.25 214.410156 105.089844 214.691406 104.898438 C 214.976562 104.710938 215.238281 104.496094 215.480469 104.253906 C 215.722656 104.011719 215.9375 103.75 216.125 103.464844 C 216.316406 103.183594 216.476562 102.882812 216.605469 102.566406 C 216.738281 102.253906 216.835938 101.925781 216.902344 101.59375 C 216.96875 101.257812 217 100.921875 217 100.578125 C 217 100.238281 216.96875 99.902344 216.902344 99.566406 C 216.835938 99.230469 216.738281 98.90625 216.605469 98.589844 C 216.476562 98.277344 216.316406 97.976562 216.125 97.695312 C 215.9375 97.410156 215.722656 97.148438 215.480469 96.90625 C 212.113281 93.519531 208.449219 90.5 204.484375 87.84375 C 200.515625 85.183594 196.328125 82.941406 191.917969 81.117188 C 187.507812 79.289062 182.960938 77.914062 178.277344 76.988281 C 173.59375 76.0625 168.867188 75.609375 164.09375 75.621094 Z M 164.09375 75.621094 " fill-opacity="1" fill-rule="nonzero"/></g><g clip-path="url(#4413e8b130)"><path fill="#3d194f" d="M 164.09375 96.394531 C 160.6875 96.382812 157.3125 96.699219 153.96875 97.355469 C 150.628906 98.007812 147.382812 98.980469 144.230469 100.277344 C 141.082031 101.574219 138.09375 103.167969 135.257812 105.058594 C 132.425781 106.949219 129.804688 109.097656 127.398438 111.503906 C 127.171875 111.75 126.976562 112.011719 126.800781 112.292969 C 126.628906 112.578125 126.484375 112.871094 126.367188 113.183594 C 126.25 113.492188 126.164062 113.8125 126.109375 114.136719 C 126.054688 114.464844 126.03125 114.792969 126.035156 115.121094 C 126.042969 115.453125 126.082031 115.78125 126.152344 116.105469 C 126.222656 116.429688 126.320312 116.742188 126.449219 117.046875 C 126.582031 117.351562 126.738281 117.640625 126.921875 117.914062 C 127.109375 118.1875 127.316406 118.445312 127.550781 118.679688 C 127.785156 118.914062 128.039062 119.121094 128.3125 119.308594 C 128.585938 119.496094 128.875 119.652344 129.179688 119.78125 C 129.484375 119.914062 129.796875 120.015625 130.121094 120.085938 C 130.445312 120.15625 130.773438 120.195312 131.101562 120.203125 C 131.433594 120.210938 131.761719 120.1875 132.089844 120.132812 C 132.414062 120.078125 132.734375 119.992188 133.042969 119.875 C 133.355469 119.761719 133.652344 119.617188 133.933594 119.445312 C 134.214844 119.273438 134.480469 119.074219 134.722656 118.851562 C 135.6875 117.890625 136.691406 116.980469 137.746094 116.117188 C 138.796875 115.253906 139.886719 114.445312 141.019531 113.691406 C 142.148438 112.933594 143.316406 112.234375 144.515625 111.59375 C 145.714844 110.953125 146.941406 110.375 148.199219 109.855469 C 149.457031 109.332031 150.734375 108.875 152.035156 108.480469 C 153.339844 108.085938 154.65625 107.757812 155.988281 107.492188 C 157.324219 107.226562 158.667969 107.027344 160.019531 106.894531 C 161.375 106.761719 162.730469 106.695312 164.09375 106.695312 C 165.453125 106.695312 166.808594 106.761719 168.164062 106.894531 C 169.515625 107.027344 170.859375 107.226562 172.195312 107.492188 C 173.527344 107.757812 174.84375 108.085938 176.148438 108.480469 C 177.449219 108.875 178.726562 109.332031 179.984375 109.855469 C 181.242188 110.375 182.46875 110.953125 183.667969 111.59375 C 184.867188 112.234375 186.035156 112.933594 187.164062 113.691406 C 188.296875 114.445312 189.386719 115.253906 190.4375 116.117188 C 191.492188 116.980469 192.496094 117.890625 193.460938 118.851562 C 193.699219 119.089844 193.960938 119.304688 194.246094 119.492188 C 194.527344 119.683594 194.828125 119.839844 195.140625 119.972656 C 195.457031 120.101562 195.78125 120.199219 196.113281 120.265625 C 196.445312 120.332031 196.78125 120.363281 197.125 120.363281 C 197.464844 120.363281 197.800781 120.332031 198.132812 120.265625 C 198.46875 120.199219 198.789062 120.101562 199.105469 119.972656 C 199.417969 119.839844 199.71875 119.683594 200 119.492188 C 200.285156 119.304688 200.546875 119.089844 200.785156 118.851562 C 201.03125 118.609375 201.246094 118.347656 201.4375 118.066406 C 201.625 117.78125 201.789062 117.484375 201.917969 117.167969 C 202.050781 116.851562 202.148438 116.527344 202.214844 116.191406 C 202.285156 115.859375 202.316406 115.519531 202.316406 115.179688 C 202.316406 114.835938 202.285156 114.5 202.214844 114.164062 C 202.148438 113.828125 202.050781 113.503906 201.917969 113.1875 C 201.789062 112.875 201.625 112.574219 201.4375 112.289062 C 201.246094 112.007812 201.03125 111.746094 200.785156 111.503906 C 198.378906 109.097656 195.757812 106.949219 192.925781 105.058594 C 190.089844 103.167969 187.101562 101.574219 183.953125 100.277344 C 180.800781 98.980469 177.554688 98.007812 174.214844 97.355469 C 170.871094 96.699219 167.496094 96.382812 164.09375 96.394531 Z M 164.09375 96.394531 " fill-opacity="1" fill-rule="nonzero"/></g><g clip-path="url(#1956538415)"><path fill="#3d194f" d="M 142.070312 126.273438 C 141.8125 126.511719 141.578125 126.769531 141.375 127.054688 C 141.167969 127.339844 140.992188 127.640625 140.847656 127.960938 C 140.703125 128.28125 140.589844 128.613281 140.511719 128.953125 C 140.433594 129.296875 140.390625 129.644531 140.382812 129.992188 C 140.375 130.34375 140.402344 130.691406 140.46875 131.039062 C 140.53125 131.382812 140.628906 131.71875 140.757812 132.042969 C 140.890625 132.371094 141.050781 132.679688 141.246094 132.972656 C 141.4375 133.265625 141.660156 133.535156 141.910156 133.785156 C 142.15625 134.03125 142.429688 134.25 142.722656 134.445312 C 143.015625 134.636719 143.324219 134.800781 143.648438 134.929688 C 143.976562 135.058594 144.3125 135.15625 144.65625 135.21875 C 145.003906 135.28125 145.351562 135.308594 145.703125 135.296875 C 146.054688 135.289062 146.398438 135.246094 146.742188 135.167969 C 147.082031 135.089844 147.414062 134.976562 147.734375 134.832031 C 148.054688 134.683594 148.355469 134.507812 148.636719 134.300781 C 148.921875 134.09375 149.179688 133.859375 149.417969 133.601562 C 149.898438 133.121094 150.402344 132.667969 150.925781 132.234375 C 151.453125 131.804688 152 131.402344 152.5625 131.023438 C 153.128906 130.648438 153.710938 130.296875 154.3125 129.980469 C 154.910156 129.660156 155.523438 129.371094 156.152344 129.109375 C 156.78125 128.851562 157.417969 128.621094 158.070312 128.425781 C 158.71875 128.226562 159.378906 128.0625 160.042969 127.929688 C 160.710938 127.796875 161.382812 127.699219 162.058594 127.632812 C 162.734375 127.566406 163.414062 127.53125 164.09375 127.53125 C 164.769531 127.53125 165.449219 127.566406 166.125 127.632812 C 166.800781 127.699219 167.472656 127.796875 168.140625 127.929688 C 168.804688 128.0625 169.464844 128.226562 170.113281 128.425781 C 170.765625 128.621094 171.402344 128.851562 172.03125 129.109375 C 172.660156 129.371094 173.273438 129.660156 173.871094 129.980469 C 174.472656 130.296875 175.054688 130.648438 175.621094 131.023438 C 176.183594 131.402344 176.730469 131.804688 177.257812 132.234375 C 177.78125 132.667969 178.285156 133.121094 178.765625 133.601562 C 179.003906 133.859375 179.261719 134.09375 179.546875 134.300781 C 179.828125 134.507812 180.128906 134.683594 180.449219 134.832031 C 180.769531 134.976562 181.101562 135.089844 181.441406 135.167969 C 181.785156 135.246094 182.128906 135.289062 182.480469 135.296875 C 182.832031 135.308594 183.179688 135.28125 183.527344 135.21875 C 183.871094 135.15625 184.207031 135.058594 184.535156 134.929688 C 184.859375 134.800781 185.167969 134.636719 185.460938 134.445312 C 185.753906 134.25 186.027344 134.03125 186.273438 133.785156 C 186.523438 133.535156 186.746094 133.265625 186.9375 132.972656 C 187.132812 132.679688 187.292969 132.371094 187.425781 132.042969 C 187.558594 131.71875 187.652344 131.382812 187.714844 131.039062 C 187.78125 130.691406 187.808594 130.34375 187.800781 129.992188 C 187.792969 129.644531 187.75 129.296875 187.671875 128.953125 C 187.59375 128.613281 187.480469 128.28125 187.335938 127.960938 C 187.191406 127.640625 187.015625 127.339844 186.808594 127.054688 C 186.605469 126.769531 186.371094 126.511719 186.113281 126.273438 C 185.390625 125.554688 184.636719 124.871094 183.847656 124.226562 C 183.058594 123.578125 182.238281 122.972656 181.390625 122.40625 C 180.542969 121.839844 179.667969 121.320312 178.769531 120.839844 C 177.871094 120.359375 176.949219 119.925781 176.007812 119.535156 C 175.0625 119.144531 174.105469 118.800781 173.128906 118.507812 C 172.152344 118.210938 171.164062 117.964844 170.164062 117.765625 C 169.164062 117.566406 168.15625 117.417969 167.144531 117.316406 C 166.128906 117.21875 165.113281 117.167969 164.09375 117.167969 C 163.070312 117.167969 162.054688 117.21875 161.039062 117.316406 C 160.027344 117.417969 159.019531 117.566406 158.019531 117.765625 C 157.019531 117.964844 156.03125 118.210938 155.054688 118.507812 C 154.078125 118.800781 153.121094 119.144531 152.175781 119.535156 C 151.234375 119.925781 150.3125 120.359375 149.414062 120.839844 C 148.515625 121.320312 147.640625 121.839844 146.792969 122.40625 C 145.945312 122.972656 145.125 123.578125 144.335938 124.226562 C 143.546875 124.871094 142.792969 125.554688 142.070312 126.273438 Z M 142.070312 126.273438 " fill-opacity="1" fill-rule="nonzero"/></g></svg>